<svg width="6" height="8" viewBox="0 0 6 8" fill="none" xmlns="http://www.w3.org/2000/svg">
<path d="M1.19325 0.473185C1.13145 0.534861 1.08242 0.60812 1.04897 0.688769C1.01551 0.769418 0.998291 0.855873 0.998291 0.943185C0.998291 1.0305 1.01551 1.11695 1.04897 1.1976C1.08242 1.27825 1.13145 1.35151 1.19325 1.41319L3.77992 3.99985L1.19325 6.58652C1.13153 6.64824 1.08257 6.72151 1.04917 6.80216C1.01577 6.8828 0.998573 6.96923 0.998573 7.05652C0.998573 7.1438 1.01577 7.23024 1.04917 7.31088C1.08257 7.39152 1.13153 7.4648 1.19325 7.52652C1.25498 7.58824 1.32825 7.6372 1.40889 7.6706C1.48953 7.70401 1.57597 7.7212 1.66325 7.7212C1.75054 7.7212 1.83697 7.70401 1.91762 7.6706C1.99826 7.6372 2.07153 7.58824 2.13325 7.52652L5.19325 4.46652C5.25506 4.40484 5.30409 4.33158 5.33754 4.25093C5.371 4.17029 5.38822 4.08383 5.38822 3.99652C5.38822 3.90921 5.371 3.82275 5.33754 3.7421C5.30409 3.66145 5.25506 3.58819 5.19325 3.52652L2.13325 0.466518C1.87992 0.213185 1.45325 0.213185 1.19325 0.473185Z" fill="#73738C"/>
</svg>
