<svg width="6" height="8" viewBox="0 0 6 8" fill="none" xmlns="http://www.w3.org/2000/svg">
<path d="M1.19338 0.473185C1.13157 0.534861 1.08254 0.60812 1.04909 0.688769C1.01563 0.769418 0.998413 0.855873 0.998413 0.943185C0.998413 1.0305 1.01563 1.11695 1.04909 1.1976C1.08254 1.27825 1.13157 1.35151 1.19338 1.41319L3.78004 3.99985L1.19338 6.58652C1.13165 6.64824 1.08269 6.72151 1.04929 6.80216C1.01589 6.8828 0.998695 6.96923 0.998695 7.05652C0.998695 7.1438 1.01589 7.23024 1.04929 7.31088C1.08269 7.39152 1.13165 7.4648 1.19338 7.52652C1.2551 7.58824 1.32837 7.6372 1.40901 7.6706C1.48966 7.70401 1.57609 7.7212 1.66338 7.7212C1.75066 7.7212 1.8371 7.70401 1.91774 7.6706C1.99838 7.6372 2.07165 7.58824 2.13338 7.52652L5.19338 4.46652C5.25518 4.40484 5.30421 4.33158 5.33766 4.25093C5.37112 4.17029 5.38834 4.08383 5.38834 3.99652C5.38834 3.90921 5.37112 3.82275 5.33766 3.7421C5.30421 3.66145 5.25518 3.58819 5.19338 3.52652L2.13338 0.466518C1.88004 0.213185 1.45338 0.213185 1.19338 0.473185Z" fill="#3173CC"/>
</svg>
