<svg width="14" height="12" viewBox="0 0 14 12" fill="none" xmlns="http://www.w3.org/2000/svg">
<path d="M5.86671 3.13333C5.80495 3.19435 5.75591 3.26702 5.72245 3.34712C5.68898 3.42723 5.67175 3.51318 5.67175 3.6C5.67175 3.68682 5.68898 3.77277 5.72245 3.85288C5.75591 3.93298 5.80495 4.00565 5.86671 4.06667L7.13337 5.33333H1.00004C0.633374 5.33333 0.333374 5.63333 0.333374 6C0.333374 6.36667 0.633374 6.66667 1.00004 6.66667H7.13337L5.86671 7.93333C5.80495 7.99435 5.75591 8.06702 5.72245 8.14712C5.68898 8.22723 5.67175 8.31318 5.67175 8.4C5.67175 8.48682 5.68898 8.57277 5.72245 8.65288C5.75591 8.73298 5.80495 8.80565 5.86671 8.86667C6.12671 9.12667 6.54004 9.12667 6.80004 8.86667L9.19337 6.47333C9.25518 6.41166 9.30421 6.3384 9.33766 6.25775C9.37112 6.1771 9.38834 6.09065 9.38834 6.00333C9.38834 5.91602 9.37112 5.82957 9.33766 5.74892C9.30421 5.66827 9.25518 5.59501 9.19337 5.53333L6.80004 3.13333C6.73903 3.07157 6.66636 3.02254 6.58625 2.98907C6.50614 2.95561 6.42019 2.93837 6.33337 2.93837C6.24656 2.93837 6.1606 2.95561 6.0805 2.98907C6.00039 3.02254 5.92772 3.07157 5.86671 3.13333ZM12.3334 10.6667H7.66671C7.30004 10.6667 7.00004 10.9667 7.00004 11.3333C7.00004 11.7 7.30004 12 7.66671 12H12.3334C13.0667 12 13.6667 11.4 13.6667 10.6667V1.33333C13.6667 0.6 13.0667 0 12.3334 0H7.66671C7.30004 0 7.00004 0.3 7.00004 0.666667C7.00004 1.03333 7.30004 1.33333 7.66671 1.33333H12.3334V10.6667Z" fill="#AEAEAF"/>
</svg>
