<svg width="32" height="32" viewBox="0 0 32 32" fill="none" xmlns="http://www.w3.org/2000/svg">
<rect x="0.5" y="0.5" width="31" height="31" rx="3.5" fill="#FBFCFE"/>
<path d="M10 20C10 20.3667 10.3 20.6667 10.6667 20.6667H14V19.3333H10.6667C10.3 19.3333 10 19.6333 10 20ZM10 12C10 12.3667 10.3 12.6667 10.6667 12.6667H16.6667V11.3333H10.6667C10.3 11.3333 10 11.6333 10 12ZM16.6667 21.3333V20.6667H21.3333C21.7 20.6667 22 20.3667 22 20C22 19.6333 21.7 19.3333 21.3333 19.3333H16.6667V18.6667C16.6667 18.3 16.3667 18 16 18C15.6333 18 15.3333 18.3 15.3333 18.6667V21.3333C15.3333 21.7 15.6333 22 16 22C16.3667 22 16.6667 21.7 16.6667 21.3333ZM12.6667 14.6667V15.3333H10.6667C10.3 15.3333 10 15.6333 10 16C10 16.3667 10.3 16.6667 10.6667 16.6667H12.6667V17.3333C12.6667 17.7 12.9667 18 13.3333 18C13.7 18 14 17.7 14 17.3333V14.6667C14 14.3 13.7 14 13.3333 14C12.9667 14 12.6667 14.3 12.6667 14.6667ZM22 16C22 15.6333 21.7 15.3333 21.3333 15.3333H15.3333V16.6667H21.3333C21.7 16.6667 22 16.3667 22 16ZM18.6667 14C19.0333 14 19.3333 13.7 19.3333 13.3333V12.6667H21.3333C21.7 12.6667 22 12.3667 22 12C22 11.6333 21.7 11.3333 21.3333 11.3333H19.3333V10.6667C19.3333 10.3 19.0333 10 18.6667 10C18.3 10 18 10.3 18 10.6667V13.3333C18 13.7 18.3 14 18.6667 14Z" fill="#73738C"/>
<rect x="0.5" y="0.5" width="31" height="31" rx="3.5" stroke="#73738C"/>
</svg>
