<svg width="13" height="13" viewBox="0 0 13 13" fill="none" xmlns="http://www.w3.org/2000/svg">
<path d="M0 10.6397V12.6663C0 12.853 0.146667 12.9997 0.333333 12.9997H2.36C2.44667 12.9997 2.53333 12.9663 2.59333 12.8997L9.87333 5.62634L7.37333 3.12634L0.1 10.3997C0.0333334 10.4663 0 10.5463 0 10.6397ZM11.8067 3.69301C11.8685 3.63133 11.9175 3.55807 11.951 3.47743C11.9844 3.39678 12.0016 3.31032 12.0016 3.22301C12.0016 3.1357 11.9844 3.04924 11.951 2.96859C11.9175 2.88794 11.8685 2.81469 11.8067 2.75301L10.2467 1.19301C10.185 1.13121 10.1117 1.08218 10.0311 1.04872C9.95043 1.01527 9.86398 0.998047 9.77667 0.998047C9.68935 0.998047 9.6029 1.01527 9.52225 1.04872C9.4416 1.08218 9.36834 1.13121 9.30667 1.19301L8.08667 2.41301L10.5867 4.91301L11.8067 3.69301Z" fill="#73738C"/>
</svg>
